# xmcd
#
# Track frame offsets:
#	150
#	11390
#	22930
#	35485
#	46790
#	57807
#	71890
#	81705
#	94140
#	106517
#	116660
#	131982
#	145217
#	158220
#	170465
#
# Disc length: 2476 seconds
#
# Revision: 2
# Processed by: cddbd v1.5.2PL0 Copyright (c) Steve Scherf et al.
# Submitted via: EasyCDDAExtractor 15.2.5.1
#
DISCID=c609aa0f
DTITLE=Bill Anderson - Whispering Bill Bill Anderson Greatest Hits - Volume 2
DYEAR=1997
DGENRE=Country
TTITLE0=Walk Out Backwards
TTITLE1=On And On And On
TTITLE2=For Loving You (With Jan Howard)
TTITLE3=Happy State Of Mind
TTITLE4=Quits
TTITLE5=Dis-Satisfied (With Jan Howard)
TTITLE6=Don't She Look Good
TTITLE7=If You Can Live With It (I Can Live Without It)
TTITLE8=World Of Make Believe
TTITLE9=Every Time I Turn The Radio On
TTITLE10=Country DJ
TTITLE11=Sometimes (With Mary Lou Turner)
TTITLE12=That's What Made You Love Me (With Mary Lou Turner)
TTITLE13=Liars One, Believers Zero
TTITLE14=Still The One
EXTD=
EXTT0=
EXTT1=
EXTT2=
EXTT3=
EXTT4=
EXTT5=
EXTT6=
EXTT7=
EXTT8=
EXTT9=
EXTT10=
EXTT11=
EXTT12=
EXTT13=
EXTT14=
PLAYORDER=
